<svg width="240" height="240" viewBox="0 0 240 240" xmlns="http://www.w3.org/2000/svg">
  <defs>
    <!-- Dark theme gradient -->
    <linearGradient id="darkGradient" x1="0%" y1="0%" x2="100%" y2="100%">
      <stop offset="0%" style="stop-color:#1e293b;stop-opacity:1" />
      <stop offset="50%" style="stop-color:#334155;stop-opacity:1" />
      <stop offset="100%" style="stop-color:#475569;stop-opacity:1" />
    </linearGradient>
    
    <!-- Accent colors for dark theme -->
    <linearGradient id="darkAccent" x1="0%" y1="0%" x2="100%" y2="0%">
      <stop offset="0%" style="stop-color:#3b82f6;stop-opacity:1" />
      <stop offset="100%" style="stop-color:#8b5cf6;stop-opacity:1" />
    </linearGradient>
    
    <!-- Shadow for dark theme -->
    <filter id="darkShadow" x="-50%" y="-50%" width="200%" height="200%">
      <feDropShadow dx="0" dy="4" stdDeviation="8" flood-color="#000000" flood-opacity="0.3"/>
    </filter>
    
    <!-- Glow for dark theme -->
    <filter id="darkGlow" x="-50%" y="-50%" width="200%" height="200%">
      <feGaussianBlur stdDeviation="2" result="coloredBlur"/>
      <feMerge> 
        <feMergeNode in="coloredBlur"/>
        <feMergeNode in="SourceGraphic"/>
      </feMerge>
    </filter>
  </defs>
  
  <!-- Background circle -->
  <circle cx="120" cy="120" r="110" fill="url(#darkGradient)" filter="url(#darkShadow)" opacity="0.95"/>
  <circle cx="120" cy="120" r="95" fill="none" stroke="rgba(59,130,246,0.2)" stroke-width="1"/>
  
  <!-- Git network visualization -->
  <g transform="translate(40, 40)" opacity="0.9">
    <!-- Main branch line -->
    <line x1="20" y1="80" x2="140" y2="80" stroke="#3b82f6" stroke-width="3" stroke-linecap="round"/>
    
    <!-- Feature branch -->
    <path d="M 60 80 Q 80 60 100 60 Q 120 60 140 80" 
          fill="none" stroke="#8b5cf6" stroke-width="2.5" stroke-linecap="round"/>
    
    <!-- Commit nodes -->
    <circle cx="20" cy="80" r="6" fill="#3b82f6" filter="url(#darkGlow)"/>
    <circle cx="60" cy="80" r="6" fill="#3b82f6" filter="url(#darkGlow)"/>
    <circle cx="100" cy="60" r="6" fill="#8b5cf6" filter="url(#darkGlow)"/>
    <circle cx="140" cy="80" r="6" fill="#3b82f6" filter="url(#darkGlow)"/>
    
    <!-- Merge point -->
    <circle cx="140" cy="80" r="8" fill="none" stroke="url(#darkAccent)" stroke-width="2"/>
  </g>
  
  <!-- AI Brain symbol -->
  <g transform="translate(80, 75)">
    <!-- Brain outline -->
    <path d="M 40 30 
             C 25 30, 15 40, 15 55
             C 15 65, 20 70, 25 70
             C 20 75, 25 80, 35 80
             C 40 85, 50 85, 55 80
             C 65 80, 70 75, 65 70
             C 70 70, 75 65, 75 55
             C 75 40, 65 30, 50 30
             C 45 25, 35 25, 30 30
             Z" 
          fill="#f8fafc" 
          stroke="url(#darkAccent)" 
          stroke-width="2"
          filter="url(#darkShadow)"/>
    
    <!-- Neural network pattern inside brain -->
    <g opacity="0.8">
      <!-- Nodes -->
      <circle cx="35" cy="45" r="2.5" fill="#3b82f6"/>
      <circle cx="55" cy="40" r="2.5" fill="#8b5cf6"/>
      <circle cx="45" cy="55" r="2.5" fill="#3b82f6"/>
      <circle cx="35" cy="65" r="2.5" fill="#8b5cf6"/>
      <circle cx="55" cy="65" r="2.5" fill="#3b82f6"/>
      
      <!-- Connections -->
      <line x1="35" y1="45" x2="55" y2="40" stroke="url(#darkAccent)" stroke-width="1.5" opacity="0.7"/>
      <line x1="35" y1="45" x2="45" y2="55" stroke="url(#darkAccent)" stroke-width="1.5" opacity="0.7"/>
      <line x1="55" y1="40" x2="45" y2="55" stroke="url(#darkAccent)" stroke-width="1.5" opacity="0.7"/>
      <line x1="45" y1="55" x2="35" y2="65" stroke="url(#darkAccent)" stroke-width="1.5" opacity="0.7"/>
      <line x1="45" y1="55" x2="55" y2="65" stroke="url(#darkAccent)" stroke-width="1.5" opacity="0.7"/>
    </g>
  </g>
  
  <!-- Code bracket symbols -->
  <g transform="translate(50, 140)" opacity="0.7">
    <text x="0" y="0" font-family="'JetBrains Mono', 'Fira Code', monospace" 
          font-size="24" font-weight="bold" fill="#64748b">{'</text>
  </g>
  
  <g transform="translate(155, 140)" opacity="0.7">
    <text x="0" y="0" font-family="'JetBrains Mono', 'Fira Code', monospace" 
          font-size="24" font-weight="bold" fill="#64748b">}</text>
  </g>
  
  <!-- Modern geometric accents -->
  <g transform="translate(180, 60)" opacity="0.5">
    <polygon points="0,0 10,0 5,8.66" fill="#3b82f6"/>
  </g>
  
  <g transform="translate(50, 180)" opacity="0.5">
    <rect x="0" y="0" width="8" height="8" fill="#8b5cf6" rx="1"/>
  </g>
  
  <!-- Smart indicator -->
  <g transform="translate(160, 160)">
    <circle cx="20" cy="20" r="16" fill="#f8fafc" filter="url(#darkShadow)"/>
    <circle cx="20" cy="20" r="16" fill="none" stroke="url(#darkAccent)" stroke-width="2"/>
    <text x="20" y="27" font-family="'SF Pro Display', 'Segoe UI', Arial, sans-serif" 
          font-size="14" font-weight="700" text-anchor="middle" fill="#1e293b">AI</text>
  </g>
  
  <!-- Outer ring -->
  <circle cx="120" cy="120" r="115" fill="none" stroke="rgba(59,130,246,0.1)" stroke-width="1"/>
</svg>